Coordinates
version=1
nRows=11
nColumns=40
inDegrees=yes

Units are S.I. units (second, meters, Newtons, ...)
Angles are in degrees.

endheader
time	pelvis_tilt	pelvis_list	pelvis_rotation	pelvis_tx	pelvis_ty	pelvis_tz	hip_flexion_r	hip_adduction_r	hip_rotation_r	knee_angle_r	knee_angle_r_beta	ankle_angle_r	subtalar_angle_r	mtp_angle_r	hip_flexion_l	hip_adduction_l	hip_rotation_l	knee_angle_l	knee_angle_l_beta	ankle_angle_l	subtalar_angle_l	mtp_angle_l	lumbar_extension	lumbar_bending	lumbar_rotation	arm_flex_r	arm_add_r	arm_rot_r	elbow_flex_r	pro_sup_r	wrist_flex_r	wrist_dev_r	arm_flex_l	arm_add_l	arm_rot_l	elbow_flex_l	pro_sup_l	wrist_flex_l	wrist_dev_l
      1.46000000	     -4.97297196	      0.60332815	     -1.59023631	     -0.20722719	      0.87883239	     -1.42648170	      0.63883129	     -2.47082577	     -9.14305273	    -39.05253418	     -0.68159530	     -0.12864306	     -6.04509757	     -1.52893105	     30.26005755	      1.49364714	     12.17584150	    -30.80515829	     -0.53765144	      3.03214585	     11.77269948	      4.19125173	      0.22210452	     -3.84034617	      1.48666610	     -0.63673211	     -9.27925524	    -12.09324882	     30.16873444	     89.95437384	      0.00000000	      0.00000000	     -4.83135416	      9.13224105	     21.30507261	     25.79545346	     89.95437384	      0.00000000	      0.00000000
      1.47000000	     -5.33017306	      0.61517302	     -1.16585530	     -0.20070426	      0.87908273	     -1.42884722	      2.20158613	     -2.56609393	     -9.02325578	    -41.44502552	     -0.72335215	     -2.64783894	     -8.28551011	     -0.04699840	     30.19556116	      0.96650272	     11.47054029	    -30.68545999	     -0.53556231	      3.15495983	     12.77470479	      4.42434128	      0.53585259	     -3.93992661	      0.95071344	     -0.95582755	     -9.15009296	    -12.28495404	     30.29016412	     89.95437384	      0.00000000	      0.00000000	     -4.70629480	      9.23289429	     21.11647063	     26.21311503	     89.95437384	      0.00000000	      0.00000000
      1.48000000	     -5.10328445	      0.41190227	     -0.94882381	     -0.19372839	      0.88006180	     -1.43080396	      3.03346669	     -2.60812553	     -9.16443565	    -43.66215340	     -0.76204834	     -4.45660956	     -8.28934275	      0.34042981	     29.46756902	      0.99891138	     11.46463540	    -30.74308719	     -0.53656809	      3.56346100	     12.20635599	      4.27541236	      0.21643337	     -3.78692774	      0.65085459	     -1.25924214	     -9.14985658	    -12.17897095	     30.40519024	     89.95437384	      0.00000000	      0.00000000	     -4.51887106	      9.30172544	     20.94846590	     26.67253563	     89.95437384	      0.00000000	      0.00000000
      1.49000000	     -5.12738001	      0.56285866	     -0.76494897	     -0.18678597	      0.88065647	     -1.43285227	      4.25077878	     -2.99401755	     -9.06751607	    -45.92776169	     -0.80159066	     -7.09669936	     -9.01891449	      1.10107072	     28.90587633	      0.67843470	     11.74111730	    -30.59930419	     -0.53405861	      4.20647305	     11.75821864	      4.13984194	      0.23100596	     -4.01547993	      0.32944511	     -1.53787607	     -9.04496454	    -12.21710945	     30.45723581	     89.95437384	      0.00000000	      0.00000000	     -4.33928292	      9.45001492	     20.72925418	     26.96765356	     89.95437384	      0.00000000	      0.00000000
      1.50000000	     -5.19362343	      0.58659170	     -0.60438780	     -0.18038651	      0.88117196	     -1.43457824	      5.63227982	     -3.04770636	     -8.73764799	    -48.28571452	     -0.84274470	     -8.49284680	    -10.80072799	      2.42076249	     28.46808115	      0.50356527	     11.81709749	    -30.52818894	     -0.53281741	      4.38862115	     11.67930396	      4.16890228	      0.21268153	     -4.11701966	      0.06321505	     -1.78716342	     -8.93759873	    -12.29249764	     30.50988302	     89.95437384	      0.00000000	      0.00000000	     -4.11422325	      9.62106598	     20.46403308	     27.34080988	     89.95437384	      0.00000000	      0.00000000
      1.51000000	     -4.86110483	      0.31401993	     -0.21329075	     -0.17369804	      0.88213121	     -1.43641423	      6.31715971	     -2.81652138	     -8.70839841	    -50.20430676	     -0.87623045	     -8.93330172	    -10.63146770	      2.47973615	     27.66342296	      0.63241875	     11.86123625	    -30.59967727	     -0.53406512	      4.62019153	     11.23888228	      4.04524774	     -0.27099211	     -3.89286625	     -0.52488445	     -1.96282510	     -8.86907042	    -12.26532195	     30.64288656	     89.95437384	      0.00000000	      0.00000000	     -3.82761202	      9.75522702	     20.32090217	     27.65713282	     89.95437384	      0.00000000	      0.00000000
      1.52000000	     -4.72967613	      0.67983718	     -0.15943343	     -0.16710581	      0.88261245	     -1.43826690	      7.60402123	     -3.54514210	     -8.87892407	    -52.64619632	     -0.91884946	     -9.56901170	    -12.16600944	      3.12689425	     26.93993030	      0.15284152	     12.18019461	    -30.55077554	     -0.53321162	      5.56099614	     10.57254396	      3.82273333	     -0.46674197	     -4.33136986	     -0.64264863	     -2.18169077	     -8.79402576	    -12.21029761	     30.61346890	     89.95437384	      0.00000000	      0.00000000	     -3.52648963	      9.93743750	     20.13570239	     28.01879774	     89.95437384	      0.00000000	      0.00000000
      1.53000000	     -4.68175666	      0.53419273	      0.00491389	     -0.16100108	      0.88308389	     -1.43957547	      8.94555421	     -3.42220558	     -8.89695417	    -54.90890100	     -0.95834111	     -7.94063763	    -13.16111868	     16.02164845	     26.45693549	      0.28097868	     12.40798289	    -30.61989366	     -0.53441796	      5.76872168	     10.00824666	      4.01791286	     -0.63654720	     -4.25303053	     -0.91957308	     -2.34538341	     -8.69337456	    -12.18926018	     30.60767966	     89.95437384	      0.00000000	      0.00000000	     -3.21458636	     10.15434513	     19.81012571	     28.41680151	     89.95437384	      0.00000000	      0.00000000
      1.54000000	     -4.40268913	      0.62629444	      0.26095812	     -0.15453008	      0.88379390	     -1.44124100	      9.82411384	     -3.74708001	     -9.22251561	    -56.67824777	     -0.98922204	     -7.47957750	    -14.07202192	     15.89698640	     25.65070084	      0.02367614	     12.37209007	    -30.57891714	     -0.53370279	      6.19247402	      9.59579302	      3.87042689	     -1.02217889	     -4.40491554	     -1.30705454	     -2.47450478	     -8.57749138	    -12.19867062	     30.57548339	     89.95437384	      0.00000000	      0.00000000	     -2.88729372	     10.34529251	     19.73616872	     28.77930836	     89.95437384	      0.00000000	      0.00000000
      1.55000000	     -4.06940417	      0.42676123	      0.55228504	     -0.14824340	      0.88469763	     -1.44270007	     10.62060367	     -3.70074875	     -9.54037005	    -58.15513334	     -1.01499855	     -7.18061424	    -14.29652067	     15.63411675	     24.86223646	      0.12267574	     12.36466338	    -30.61976642	     -0.53441574	      6.38735966	      9.34198752	      3.76931648	     -1.50240694	     -4.22918397	     -1.72537205	     -2.57506826	     -8.49891860	    -12.17725888	     30.54428503	     89.95437384	      0.00000000	      0.00000000	     -2.46668111	     10.50338434	     19.64537868	     29.03324366	     89.95437384	      0.00000000	      0.00000000
      1.56000000	     -3.87403957	      0.59468265	      0.82707835	     -0.14197915	      0.88534559	     -1.44430407	     11.55999292	     -4.05926537	     -9.78579957	    -59.52241942	     -1.03886220	     -6.42167358	    -15.29820869	     15.58427584	     24.18331249	     -0.26916372	     12.10736654	    -30.61505264	     -0.53433347	      6.96492947	      8.94492038	      3.58653351	     -1.78585349	     -4.46698716	     -2.08531036	     -2.68832860	     -8.36604893	    -12.16474284	     30.40478634	     89.95437384	      0.00000000	      0.00000000	     -2.06937164	     10.71149909	     19.56479547	     29.32605847	     89.95437384	      0.00000000	      0.00000000
